<svg xmlns="http://www.w3.org/2000/svg" viewBox="0 0 297 297" width="512" height="512"><path d="M214.719 48.108c2.869 5.415 8.456 8.515 14.212 8.515 2.527 0 5.084-.597 7.461-1.855l44.713-23.693c7.791-4.13 10.788-13.883 6.659-21.675l-.469-.884C284.425 3.1 278.836 0 273.079 0c-2.525 0-5.082.597-7.458 1.855L220.909 25.55c-7.792 4.129-10.789 13.882-6.66 21.673l.47.885zM34.881 142.839c.126.238.266.48.415.723 8.263 14.949 23.898 24.213 41.039 24.213 7.591 0 15.168-1.89 21.914-5.464 32.884-17.427 68.338-72.669 75.302-83.882l33.145-17.563a30.078 30.078 0 0 1-4.37-6.185l-.472-.891a30.063 30.063 0 0 1-2.679-7.085l-33.137 17.56c-2.944-.116-8.598-.288-16.015-.288-30.308 0-71.508 2.688-95.673 15.494-22.827 12.098-31.564 40.504-19.483 63.337l.014.031zm55.862 5.305c-4.506 2.388-9.354 3.599-14.408 3.599-4.76 0-9.339-1.099-13.457-3.089 7.174-1.807 15.174-4.959 23.241-9.234 13.869-7.35 30.21-18.291 44.958-28.88-12.333 15.254-26.86 30.463-40.334 37.604zm-12.131-22.89c-12.393 6.566-22.396 9.004-27.793 9.115 2.954-4.094 10.569-11.163 23.17-17.841 14.136-7.491 33.533-15.175 51.207-21.548-15.192 11.044-32.443 22.779-46.584 30.274zM61.858 93.639c13.491-7.149 34.284-10.628 53.783-12.268-17.049 6.258-35.285 13.639-49.16 20.991-7.316 3.877-14.72 8.717-20.672 13.979 1.408-9.351 7.07-17.945 16.049-22.702zm218.911 84.119H16.231c-5.534 0-10.021 4.486-10.021 10.021 0 27.233 15.529 54.941 42.606 76.017C76.327 285.208 111.727 297 148.5 297c36.772 0 72.173-11.792 99.683-33.205 27.077-21.075 42.607-48.783 42.607-76.017-.001-5.534-4.487-10.02-10.021-10.02z" fill="#555"/></svg>