<svg xmlns="http://www.w3.org/2000/svg" viewBox="0 0 478.165 478.165" width="512" height="512"><path d="M279.916 190.907c0-9.543 7.631-17.393 17.254-17.393 9.464 0 17.074 7.85 17.074 17.393 0 9.563-7.631 17.333-17.074 17.333-9.624-.019-17.254-7.769-17.254-17.333zM226.341 43.015h-.139v23.789h21.856V43.732c7.511-3.805 12.671-11.576 12.671-20.601C260.669 10.32 250.429 0 237.817 0c-12.711 0-22.972 10.32-22.972 23.111 0 8.567 4.643 15.919 11.496 19.904zm-47.737 165.206c9.504 0 17.234-7.77 17.234-17.333 0-9.543-7.73-17.393-17.234-17.393-9.523 0-17.254 7.85-17.254 17.393.001 9.583 7.711 17.333 17.254 17.333zm59.213 269.944c25.881 0 47.876-16.736 56.304-39.807H181.553c8.328 23.071 30.364 39.807 56.264 39.807zm-179.371-70.51c0-9.225 5.32-17.154 13.03-20.82v-98.382c0-19.465 14.982-35.305 33.89-36.639v-47.518s4.622-86.687 76.227-113.724c21.238-7.969 40.624-11.197 57.479-11.835 16.855.657 36.301 3.865 57.479 11.855 71.605 26.937 76.188 113.723 76.188 113.723v47.737c18.987 1.156 33.93 16.995 33.93 36.46v98.323c7.671 3.666 13.05 11.615 13.05 20.86 0 12.751-10.281 23.032-22.912 23.032-12.671 0-22.932-10.3-22.932-23.032 0-9.245 5.3-17.154 12.97-20.86v-65.628c-4.303 2.092-9.045 3.467-14.066 3.845v22.812c.159 1.893.319 3.726.319 5.579 0 2.032-.159 3.905-.319 6.017v.558h-.08c-2.989 37.934-32.655 68.577-70.071 72.741l.04.458H175.396l.02-.458c-37.416-4.204-66.943-34.647-70.051-72.741h-.04v-.558a68.733 68.733 0 0 1-.279-6.017c0-1.833.159-3.646.279-5.579v-22.812c-5.021-.398-9.842-1.753-14.086-3.845v65.628c7.69 3.666 13.07 11.615 13.07 20.86 0 12.751-10.3 23.032-22.972 23.032-12.651 0-22.891-10.321-22.891-23.072zm218.82-120.995c0-6.176-4.961-11.197-11.018-11.197-6.117 0-10.958 5.021-10.958 11.197 0 6.117 4.841 11.117 10.958 11.117 6.097-.02 11.018-5.021 11.018-11.117zm27.215 0c0-6.176-5.001-11.197-11.058-11.197-6.037 0-10.978 5.021-10.978 11.197 0 6.117 4.961 11.117 10.978 11.117 6.038-.02 11.058-5.021 11.058-11.117zm27.315 0c0-6.176-4.981-11.197-11.117-11.197-6.077 0-11.077 5.021-11.077 11.197 0 6.117 5.001 11.117 11.077 11.117 6.137-.02 11.117-5.021 11.117-11.117zm-185.707-92.585c0 29.547 22.932 31.459 22.932 31.459 7.949 2.57 24.884 1.355 32.475 0 7.033-1.156 32.834-3.387 36.898-3.746.179 0 .438.02.638.02.219 0 .478-.02.578-.02 4.164.339 29.885 2.59 36.898 3.746 7.71 1.355 24.586 2.57 32.535 0 0 0 22.912-1.833 22.912-31.459 0 0 0-32.794-22.912-52.758-22.255-19.246-55.786-23.47-68.776-23.669h-2.49c-13.03.199-46.561 4.443-68.816 23.669-22.872 19.964-22.872 52.758-22.872 52.758z" fill="#ff4431"/></svg>